# xmcd CD database file
#
# Track frame offsets:
#	150
#	13056
#	53286
#	81787
#	129713
#	169000
#	210206
#	223857
#	254608
#	289709
#
# Disc length: 4726 seconds
#
# Revision: 0
# Processed by: cddbd v1.5.2PL0 Copyright (c) Steve Scherf et al.
# Submitted via: CDex 1.51
#
DISCID=8812740a
DTITLE=Arjazztra - Keep On Doggin'
DYEAR=2007
DGENRE=Jazz
TTITLE0=Dog's Kickin'
TTITLE1=From The Bottom Of The Funk
TTITLE2=Coffee Jazz
TTITLE3=Bastafari
TTITLE4=Keep On Doggin
TTITLE5=Groove Mornin'
TTITLE6=Phil Kick's The Stones
TTITLE7=Youngblood Summernight
TTITLE8=My Friend Mr. Coffee
TTITLE9=Bad Idea
EXTD=YEAR: 2007
EXTT0=
EXTT1=
EXTT2=
EXTT3=
EXTT4=
EXTT5=
EXTT6=
EXTT7=
EXTT8=
EXTT9=
PLAYORDER=
